# xmcd CD database file
#
# Track frame offsets:
#	150
#	15739
#	31294
#	43691
#	56082
#	73358
#	90450
#	101742
#	113014
#	126139
#	139201
#	152656
#	166143
#	181563
#	197056
#	215583
#	234172
#	248702
#	263256
#	279822
#	296431
#
# Disc length: 3980 seconds
#
# Revision: 0
# Processed by: cddbd v1.5.2PL0 Copyright (c) Steve Scherf et al.
# Submitted via: CDex 1.51
#
DISCID=1b0f8a15
DTITLE=Hal Leonard - Vol 32 Best of Swing
DYEAR=1900
DGENRE=Jazz
TTITLE0=Alright, Okay, You Win Split Track
TTITLE1=Alright, Okay, You Win
TTITLE2=Cherokee (Indian Love Song) Split Track
TTITLE3=Cherokee (Indian Love Song)
TTITLE4=I'll be Seeing You Split Track
TTITLE5=I'll be Seeing You
TTITLE6=I've Heard That Song Before Split Track
TTITLE7=I've Heard That Song Before
TTITLE8=Jump, Jive and Wail Split Track
TTITLE9=Jump, Jive and Wail
TTITLE10=On the Sunny Side of the Street Split Track
TTITLE11=On the Sunny Side of the Street
TTITLE12=Route 66 Split Track
TTITLE13=Route 66
TTITLE14=Sentimental Journey Split Track
TTITLE15=Sentimental Journey
TTITLE16=Seven Come Eleven Split Track
TTITLE17=Seven Come Eleven
TTITLE18=What's New Split Track
TTITLE19=What's New
TTITLE20=Bb Tuning Notes
EXTD=
EXTT0=
EXTT1=
EXTT2=
EXTT3=
EXTT4=
EXTT5=
EXTT6=
EXTT7=
EXTT8=
EXTT9=
EXTT10=
EXTT11=
EXTT12=
EXTT13=
EXTT14=
EXTT15=
EXTT16=
EXTT17=
EXTT18=
EXTT19=
EXTT20=
PLAYORDER=
